<?xml version="1.0" encoding="UTF-8"?>
<svg version="1.1" xmlns="http://www.w3.org/2000/svg" width="768" height="769">
<path d="M0 0 C1.23845673 0.00149048 2.47691345 0.00298096 3.75289917 0.0045166 C21.53992337 0.04304123 38.91269713 0.47849808 56.5 3.3125 C58.42574722 3.59398293 60.35152855 3.87523255 62.27734375 4.15625 C97.93742257 9.63098354 132.96487151 20.8038803 165.5 36.3125 C166.85037354 36.95251953 166.85037354 36.95251953 168.22802734 37.60546875 C199.19211477 52.39089158 227.76094676 71.63701119 253.5 94.3125 C254.21293213 94.93785645 254.92586426 95.56321289 255.66040039 96.20751953 C262.13432234 101.953312 268.32311533 107.94938772 274.44116211 114.06835938 C276.05890192 115.6839068 277.68450636 117.29125034 279.31054688 118.8984375 C285.82615798 125.37895555 291.80589127 132.08511247 297.5 139.3125 C298.524707 140.56726211 299.55173333 141.82013708 300.58203125 143.0703125 C312.48248572 157.68576427 322.9878225 173.04550389 332.5 189.3125 C332.91459473 190.01922852 333.32918945 190.72595703 333.75634766 191.45410156 C359.6695852 235.96776448 376.15686571 285.2171698 382.5 336.3125 C382.58720306 336.99195679 382.67440613 337.67141357 382.76425171 338.37145996 C384.66218175 353.51065074 384.85892714 368.56976915 384.8125 383.8125 C384.80976578 385.67217911 384.80976578 385.67217911 384.80697632 387.56942749 C384.76294091 405.34036656 384.43681778 422.75123857 381.5 440.3125 C381.32307617 441.41577637 381.14615234 442.51905273 380.96386719 443.65576172 C374.98382213 480.30548517 364.48814337 515.7713913 348.5 549.3125 C348.07332031 550.21274902 347.64664063 551.11299805 347.20703125 552.04052734 C332.47272288 582.89756929 313.29888247 611.81723807 290.5 637.3125 C289.85998047 638.03864502 289.21996094 638.76479004 288.56054688 639.51293945 C282.95959539 645.82030025 277.13438117 651.86436478 271.17138672 657.82641602 C269.6282647 659.37173066 268.09335694 660.92490446 266.55859375 662.47851562 C260.19733242 668.87527571 253.57329145 674.6974913 246.5 680.3125 C245.47233161 681.17574737 244.44891348 682.04413688 243.43359375 682.921875 C192.22100478 726.84127837 126.70718516 753.69457073 60.625 764.5625 C59.71290771 764.71364258 58.80081543 764.86478516 57.86108398 765.02050781 C38.91770928 767.95705404 20.08330886 768.68594201 0.9375 768.625 C-0.84790192 768.62226578 -0.84790192 768.62226578 -2.66937256 768.61947632 C-20.14771468 768.57442526 -37.22060253 768.12795808 -54.5 765.3125 C-55.63856445 765.13557617 -56.77712891 764.95865234 -57.95019531 764.77636719 C-118.68844834 755.20699344 -177.07062695 732.19930195 -226.5 695.3125 C-227.08136719 694.88130859 -227.66273438 694.45011719 -228.26171875 694.00585938 C-236.62319093 687.7778063 -244.64687471 681.16554566 -252.5 674.3125 C-253.38300781 673.54292969 -254.26601562 672.77335938 -255.17578125 671.98046875 C-261.87352686 665.98060691 -268.27007347 659.66963287 -274.65093994 653.33679199 C-275.65816232 652.33761139 -276.66686031 651.33991559 -277.67718506 650.34387207 C-284.42054816 643.68575404 -290.6113519 636.74870683 -296.5 629.3125 C-297.50114009 628.09277638 -298.50467403 626.87500937 -299.51171875 625.66015625 C-311.43539522 611.09089362 -322.1781064 595.66906841 -331.5 579.3125 C-331.88043457 578.65701172 -332.26086914 578.00152344 -332.65283203 577.32617188 C-358.54589951 532.67200566 -375.14052449 483.53946232 -381.5 432.3125 C-381.58720306 431.63304321 -381.67440613 430.95358643 -381.76425171 430.25354004 C-383.66218175 415.11434926 -383.85892714 400.05523085 -383.8125 384.8125 C-383.81067719 383.57271393 -383.80885437 382.33292786 -383.80697632 381.05557251 C-383.76294091 363.28463344 -383.43681778 345.87376143 -380.5 328.3125 C-380.32307617 327.20922363 -380.14615234 326.10594727 -379.96386719 324.96923828 C-373.98382213 288.31951483 -363.48814337 252.8536087 -347.5 219.3125 C-347.07332031 218.41225098 -346.64664063 217.51200195 -346.20703125 216.58447266 C-331.42160842 185.62038523 -312.17548881 157.05155324 -289.5 131.3125 C-288.87464355 130.59956787 -288.24928711 129.88663574 -287.60498047 129.15209961 C-281.859188 122.67817766 -275.86311228 116.48938467 -269.74414062 110.37133789 C-268.1285932 108.75359808 -266.52124966 107.12799364 -264.9140625 105.50195312 C-258.43354445 98.98634202 -251.72738753 93.00660873 -244.5 87.3125 C-243.24523789 86.287793 -241.99236292 85.26076667 -240.7421875 84.23046875 C-226.12673573 72.33001428 -210.76699611 61.8246775 -194.5 52.3125 C-193.43990723 51.69060791 -193.43990723 51.69060791 -192.35839844 51.05615234 C-151.20314227 27.09798176 -106.48930146 11.74642071 -59.5625 4.0625 C-58.18179321 3.83578613 -58.18179321 3.83578613 -56.77319336 3.60449219 C-53.68664642 3.1276932 -50.59790275 2.70932429 -47.5 2.3125 C-46.82870056 2.22529694 -46.15740112 2.13809387 -45.46575928 2.04824829 C-30.32066902 0.14016081 -15.24899741 -0.04531459 0 0 Z " fill="#0866FF" transform="translate(383.5,-0.3125)"/>
<path d="M0 0 C0.77479706 -0.00100708 1.54959412 -0.00201416 2.34786987 -0.00305176 C30.27057319 0.02115179 59.01452828 2.47238207 86.125 9.25 C86.125 44.56 86.125 79.87 86.125 116.25 C55.1875 116.0625 55.1875 116.0625 45.53149414 115.97973633 C20.80330127 115.85525804 -5.99991264 116.8732235 -25.125 134.875 C-51.41117263 162.86914898 -44.31927133 208.35055119 -44.875 242.25 C-3.625 242.25 37.625 242.25 80.125 242.25 C79.00004268 251.24965859 79.00004268 251.24965859 78.328125 254.87866211 C78.17673569 255.70270035 78.02534637 256.52673859 77.86936951 257.37574768 C77.70622757 258.25077438 77.54308563 259.12580109 77.375 260.02734375 C77.20094131 260.97137558 77.02688263 261.91540741 76.84754944 262.88804626 C76.27546725 265.98825647 75.70021986 269.08787058 75.125 272.1875 C74.7242866 274.35623796 74.32381845 276.52502126 73.92358398 278.69384766 C73.08656054 283.22852878 72.2484657 287.76301003 71.40966797 292.29736328 C69.52244032 302.50453042 67.64902322 312.71423371 65.77514648 322.92385864 C65.19873443 326.06380167 64.62190146 329.20366707 64.04492188 332.34350586 C63.68749923 334.2888996 63.33007731 336.23429347 62.97265625 338.1796875 C62.81467056 339.03924545 62.65668488 339.89880341 62.49391174 340.78440857 C61.36361019 346.938306 60.24426246 353.0940565 59.125 359.25 C24.805 359.25 -9.515 359.25 -44.875 359.25 C-44.875 446.7 -44.875 534.15 -44.875 624.25 C-67.95785834 626.55828583 -67.95785834 626.55828583 -77.65625 626.55078125 C-78.75115753 626.55638062 -79.84606506 626.56197998 -80.97415161 626.56774902 C-84.4412496 626.57944234 -87.90790414 626.57349527 -91.375 626.5625 C-92.5677655 626.56067719 -93.76053101 626.55885437 -94.98944092 626.55697632 C-112.4767659 626.51197767 -129.58974887 626.10376002 -146.875 623.25 C-148.0933252 623.05180664 -149.31165039 622.85361328 -150.56689453 622.64941406 C-182.81586996 617.30913004 -182.81586996 617.30913004 -184.875 615.25 C-184.97143128 613.8790769 -184.99871921 612.50321556 -184.99804783 611.1289053 C-185.00003888 610.23516498 -185.00202993 609.34142466 -185.00408131 608.42060131 C-185.00116847 607.42743139 -184.99825563 606.43426146 -184.99525452 605.41099548 C-184.99610894 604.36475165 -184.99696337 603.31850783 -184.99784368 602.24055964 C-184.99950161 598.70584766 -184.99397202 595.17118228 -184.98852539 591.63647461 C-184.98824356 589.1141917 -184.98840117 586.59190871 -184.9889679 584.06962585 C-184.98919622 578.62444902 -184.98634474 573.1792874 -184.98073006 567.73411369 C-184.97261735 559.861222 -184.97000007 551.9883361 -184.96874207 544.11544067 C-184.96655118 531.34347735 -184.95989012 518.57152041 -184.95043945 505.79956055 C-184.94126627 493.38973014 -184.93418498 480.97990147 -184.92993164 468.57006836 C-184.92966892 467.80566021 -184.92940619 467.04125207 -184.92913551 466.25368004 C-184.92783051 462.41902845 -184.92656679 458.58437684 -184.92532361 454.74972522 C-184.91494987 422.91647784 -184.89651096 391.08324229 -184.875 359.25 C-210.945 359.25 -237.015 359.25 -263.875 359.25 C-263.875 320.64 -263.875 282.03 -263.875 242.25 C-237.805 242.25 -211.735 242.25 -184.875 242.25 C-184.95364175 220.2488498 -184.95364175 220.2488498 -185.05517578 198.24780273 C-185.1060825 181.81350464 -184.83291776 165.59381583 -182.875 149.25 C-182.73416992 148.02482666 -182.59333984 146.79965332 -182.44824219 145.53735352 C-177.12067479 103.20151848 -160.56408618 62.80209341 -126.875 35.25 C-117.23954299 27.96445145 -106.84885549 22.24339456 -95.875 17.25 C-94.12509766 16.44949219 -94.12509766 16.44949219 -92.33984375 15.6328125 C-63.45695086 3.28641532 -31.12370164 0.02853268 0 0 Z " fill="#FEFEFF" transform="translate(475.875,141.75)"/>
</svg>
